<?xml version="1.0" encoding="UTF-8"?>
<!DOCTYPE svg PUBLIC "-//W3C//DTD SVG 1.1//EN" "http://www.w3.org/Graphics/SVG/1.1/DTD/svg11.dtd">
<!-- Creator: CorelDRAW X6 -->
<svg xmlns="http://www.w3.org/2000/svg" xml:space="preserve" width="800px" height="1105px" version="1.1" shape-rendering="geometricPrecision" text-rendering="geometricPrecision" image-rendering="optimizeQuality" fill-rule="evenodd" clip-rule="evenodd"
viewBox="0 0 481 664"
 xmlns:xlink="http://www.w3.org/1999/xlink">
 <g id="Layer_x0020_1">
  <metadata id="CorelCorpID_0Corel-Layer"/>
  <g transform="matrix(1.1342 0 0 1 -418.766 -1360.77)">
   <text x="400" y="2025"  fill="#80CFE7" font-weight="900" font-size="164.025" font-family="Kozuka Gothic Pro H">L</text>
   <text x="512" y="2025"  fill="#80CFE7" font-weight="900" font-size="164.025" font-family="Kozuka Gothic Pro H">I</text>
   <text x="590" y="2025"  fill="#80CFE7" font-weight="900" font-size="164.025" font-family="Kozuka Gothic Pro H">P</text>
   <text x="718" y="2025"  fill="#80CFE7" font-weight="900" font-size="164.025" font-family="Kozuka Gothic Pro H">I</text>
  </g>
  <path fill="#80CFE7" d="M270 110l0 75 0 0c0,0 0,22 25,22 24,0 25,-20 25,-22l0 -131c2,-19 25,-6 25,-6l0 0c69,33 120,97 134,175 0,0 0,1 0,1 0,0 0,0 0,0 0,1 0,2 1,3 2,12 -4,21 -18,22l-178 0 -2 0c-5,0 -12,1 -12,12 0,1 0,1 0,1l0 6 0 21 0 140 0 0c0,0 0,22 25,22 21,0 24,-15 25,-20l0 -130c0,0 0,0 0,0 0,-9 6,-11 10,-11l2 0 116 0 14 0 5 0c6,0 14,3 14,13 -17,117 -119,208 -241,208 -122,0 -224,-91 -241,-209 0,-9 7,-12 14,-12l10 0 126 0 3 0c3,0 9,2 9,11l0 129c0,0 0,22 25,22 24,0 25,-21 25,-22l0 0 0 -139 0 -21 0 -7c0,-11 -7,-12 -12,-12l-2 0 -176 0c-17,0 -24,-9 -22,-22 0,-1 0,-3 1,-4 0,0 0,0 0,0 14,-77 66,-142 135,-175l0 0c0,0 26,-13 26,9l0 128 0 0c0,0 0,22 25,22 24,0 25,-19 25,-22l0 -75c-18,-10 -31,-29 -31,-52 0,-32 26,-59 59,-59 32,0 59,26 59,59 0,22 -12,41 -30,51z"/>
 </g>
</svg>
